<svg xmlns="http://www.w3.org/2000/svg" width="46" height="57" fill="none" viewBox="0 0 46 57">
    <path fill="#15866B" d="M43.788 13.016h-8.793C34.995 5.828 30.207 0 24.3 0S13.605 5.828 13.605 13.016H4.812c-.351 0-.698.103-1.01.299-.313.196-.583.48-.787.828-.205.348-.338.75-.388 1.174-.05.423-.018.855.097 1.26l5.05 23.717c.148.529.43.988.804 1.313.374.326.823.5 1.283.5h28.073c.475 0 .937-.186 1.318-.53.38-.345.66-.83.796-1.383l5.856-23.718c.099-.4.12-.824.06-1.237-.06-.412-.197-.802-.403-1.138-.205-.336-.472-.61-.78-.798-.308-.188-.647-.286-.992-.287zM24.3 5.994c3.182 0 5.77 3.15 5.77 7.022H18.53c0-3.872 2.588-7.022 5.77-7.022z"/>
    <path fill="#18AF8B" d="M41.189 13.016h-8.794C32.395 5.828 27.606 0 21.7 0 15.79 0 11.003 5.828 11.003 13.016H2.21c-.352 0-.698.103-1.011.3-.313.195-.582.48-.786.827-.205.348-.337.75-.388 1.174-.05.423-.017.855.097 1.26l5.05 23.717c.149.529.43.988.804 1.313.375.326.823.5 1.283.5h28.073c.475 0 .938-.186 1.318-.53.381-.345.66-.83.797-1.383L43.3 16.476c.1-.4.12-.824.06-1.237-.06-.412-.197-.802-.402-1.138-.206-.336-.473-.61-.78-.798-.308-.188-.648-.286-.992-.287h.002zm-19.49-7.022c3.182 0 5.771 3.15 5.771 7.022H15.928c0-3.872 2.589-7.022 5.77-7.022z"/>
    <path fill="#15866B" d="M11.059 28.5c1.077 0 1.951-1.063 1.951-2.375 0-1.311-.874-2.374-1.951-2.374-1.078 0-1.952 1.063-1.952 2.374 0 1.312.874 2.375 1.952 2.375zM30.574 28.5c1.078 0 1.951-1.063 1.951-2.375 0-1.311-.873-2.374-1.951-2.374s-1.951 1.063-1.951 2.374c0 1.312.873 2.375 1.951 2.375z" opacity=".304"/>
    <path fill="#15866B" d="M26.237 28.5H15.395c-.339 0-.657.242-.863.654-.209.438-.273.954-.18 1.448.045.252 1.184 6.187 6.464 6.187 5.281 0 6.42-5.935 6.466-6.188.092-.493.026-1.01-.183-1.447-.203-.41-.523-.654-.862-.654z"/>
    <path fill="#E2FFF8" d="M22.767 57c11.856 0 21.467-1.772 21.467-3.959 0-2.186-9.61-3.959-21.467-3.959-11.855 0-21.467 1.773-21.467 3.96C1.3 55.227 10.911 57 22.767 57z"/>
    <path stroke="#15866B" stroke-linecap="round" stroke-linejoin="round" stroke-width="1.5" d="M23.418 22.166v-.003c0-.839.274-1.643.762-2.237.489-.593 1.15-.926 1.84-.926.69 0 1.352.333 1.84.926.488.594.763 1.398.763 2.237v.003m-15.613 0v-.003c0-.839.274-1.643.762-2.237.488-.593 1.15-.926 1.84-.926.69 0 1.352.333 1.84.926.488.594.762 1.398.762 2.237v.003H13.01z"/>
</svg>
