<svg xmlns="http://www.w3.org/2000/svg" width="19" height="19" fill="none" viewBox="0 0 19 19">
    <mask id="prefix__a" width="19" height="19" x="0" y="0" maskUnits="userSpaceOnUse">
        <path fill="#fff" d="M0 0v18.866h18.757V0H0z"/>
    </mask>
    <g mask="url(#prefix__a)">
        <path fill="#545454" fill-rule="evenodd" d="M9.379 0C4.199 0 0 4.33 0 9.672c0 4.274 2.686 7.899 6.415 9.179.467.088.64-.212.64-.468 0-.23-.009-.837-.013-1.644-2.61.585-3.159-1.298-3.159-1.298-.426-1.117-1.042-1.413-1.042-1.413-.852-.6.065-.59.065-.59.94.07 1.436.998 1.436.998.836 1.477 2.195 1.052 2.73.803.085-.625.326-1.052.595-1.293-2.082-.244-4.272-1.074-4.272-4.78 0-1.056.366-1.918.965-2.595-.097-.244-.418-1.228.092-2.56 0 0 .79-.26 2.58.992.764-.215 1.554-.325 2.348-.326.794.002 1.583.111 2.347.326 1.79-1.251 2.577-.991 2.577-.991.512 1.33.19 2.315.094 2.56.6.676.964 1.538.964 2.595 0 3.715-2.194 4.532-4.282 4.772.336.298.636.888.636 1.791 0 1.293-.012 2.336-.012 2.653 0 .259.17.56.644.465 3.725-1.282 6.41-4.903 6.41-9.176 0-5.341-4.2-9.672-9.38-9.672z" clip-rule="evenodd"/>
    </g>
</svg>
