<svg xmlns="http://www.w3.org/2000/svg" xmlns:xlink="http://www.w3.org/1999/xlink" width="110" height="55" viewBox="0 0 110 55"><defs><path id="a" d="M0 .268h98.314v41.077H0z"/></defs><g fill="none" fill-rule="evenodd"><path fill="#000" d="M108.741 11.47h-4.852a.96.96.0 0 1-.959-.96l.002-4.912c0-.53.43-.959.959-.959l4.853.002c.529.0.958.43.958.959l-.002 4.913c0 .529-.429.958-.959.958M102.275 4.64l-3.296-.001a.65.65.0 0 1-.65-.651V.65c0-.36.292-.65.651-.65h3.297c.359.0.65.292.65.652l-.001 3.336c0 .36-.292.651-.651.651"/><g transform="translate(0 13.393)"><mask id="b" fill="#fff"><use xlink:href="#a"/></mask><path fill="#000" d="M98.314 3.448v16.635c0 2.676-.603 4.942-1.77 6.768-2.252 3.539-6.614 5.424-12.815 5.424h-.046c-6.202.0-10.564-1.885-12.816-5.424-1.167-1.826-1.77-4.092-1.77-6.768V3.448c0-2.687 1.097-3.174 4.048-3.174h.929c2.95.0 4.047.487 4.047 3.174v6.289l.002.04v1.378c0 .048.004.092.004.141v8.787c0 1.074.207 1.929.634 2.593.805 1.238 2.397 1.801 4.945 1.805 2.548-.004 4.14-.567 4.945-1.807.427-.663.633-1.518.633-2.591v-8.787c0-.049.003-.093.004-.141V9.777l.002-.04V3.448c0-2.687 1.098-3.174 4.048-3.174h.929c2.95.0 4.047.487 4.047 3.174zM66.07 9.858l-5.485 21.941c-1.608 6.432-4.355 9.193-9.482 9.528a4.448 4.448.0 0 1-.375.018c-1.105.0-1.454-.61-1.659-1.594l-.094-.426c-.094-.448-.153-.95.108-1.302.253-.338.706-.437 1.402-.496 3.434-.352 4.599-1.94 5.744-5.54-.543.182-1.194.28-1.899.28-3.773.0-4.784-2.628-5.634-5.804L44.166 9.87c-.15-.564-.25-1.137.044-1.52.294-.384.866-.437 1.441-.437h.382c1.425.0 1.972.42 2.343 1.798l4.483 16.45c.58 2.053 1.162 2.4 2.616 2.4 1.187.0 1.881-.37 2.375-2.392l3.958-16.45c.315-1.367.874-1.806 2.298-1.806h.429c.572.0 1.142.052 1.443.43.301.379.223.952.092 1.515zM38.387 20.983H33.11c-4.243.0-5.896 1.078-5.896 3.845.0 2.523 1.648 3.75 5.037 3.75 5.13.0 6.135-1.567 6.135-4.274v-3.321zM32.252 7.215c6.943.0 10.318 2.548 10.318 7.79v9.442c0 5.42-3.167 7.837-10.27 7.837-5.977.0-9.268-2.648-9.268-7.456.0-4.957 3.187-7.265 10.031-7.265h5.324v-2.558c0-2.867-1.722-4.036-5.944-4.036-2.35.0-4.5.347-5.171.515-.286.071-.525.106-.73.106-.423.0-.735-.151-.93-.449-.166-.255-.244-.619-.244-1.143v-.382c0-1.339.493-1.662 1.67-1.917.664-.134 2.417-.484 5.214-.484zm-13.416 3.18c0 3.947-1.008 6.086-6.325 6.086H4.326V6.294c0-1.413.526-1.938 1.938-1.938h6.247c4.006.0 6.325.988 6.325 6.039zM12.511.268H5.454C1.682.268.0 1.95.0 5.722v24.224c0 1.457.468 1.925 1.925 1.925h.477c1.457.0 1.924-.468 1.924-1.925v-9.424h8.185c7.267.0 10.652-3.218 10.652-10.127.0-6.91-3.385-10.127-10.652-10.127z" mask="url(#b)" opacity=".963"/></g><path fill="#000" d="M101.635 20.662l-6.534-.002a1.29 1.29.0 0 1-1.29-1.29l.003-6.615c0-.713.578-1.29 1.29-1.29l6.534.002c.713.0 1.29.578 1.29 1.29l-.002 6.616a1.29 1.29.0 0 1-1.291 1.29" opacity=".921"/></g></svg>