<svg xmlns="http://www.w3.org/2000/svg" width="52" height="16" fill="none" viewBox="0 0 52 16">
    <path fill="#8E8E8E" fill-rule="evenodd" d="M34.706.353l-.263 1.474c-.574-.26-.993-.363-1.443-.363-1.2 0-2.048 1.045-2.048 2.538 0 1.03.573 1.651 1.506 1.651.398 0 .834-.11 1.37-.35l-.282 1.547c-.46.126-.94.19-1.422.192-1.739 0-2.82-1.123-2.82-2.925C29.305 1.693 30.799 0 32.94 0c.244-.004.487.02.723.073l.665.15c.188.066.234.077.38.13zM49.311 6.07h.11c.042.003.084-.003.122-.017.032-.021.05-.055.048-.088 0-.032-.018-.06-.048-.078-.04-.013-.081-.018-.124-.013h-.107v.196zm0 .428h-.196v-.763h.357c.076-.006.152.009.217.042.07.046.11.116.108.191.003.084-.055.16-.145.193l.155.337h-.22l-.13-.3h-.145v.3zm.132.282c.426.018.787-.264.807-.628.02-.365-.309-.675-.735-.692-.425-.016-.787.265-.807.63l-.001.028c-.01.357.32.654.738.662h-.002zm-.964-.662c.026-.455.479-.806 1.011-.783.532.024.941.411.914.866-.026.44-.448.784-.961.784-.546-.012-.977-.4-.964-.867zM29.35 1.361c-.053-.009-.109-.014-.164-.014-.53 0-.833.241-1.325.901l.144-.837h-1.457l-.99 5.51h1.62c.58-3.368.729-3.95 1.505-3.95.04 0 .078.002.117.007.107-.557.312-1.095.61-1.598l-.06-.019zM19.703 6.85c-.372.117-.764.178-1.16.182-.822 0-1.272-.429-1.272-1.212 0-.165.016-.329.046-.492l.096-.536.078-.442.7-3.76h1.605l-.184.819h.825l-.227 1.34h-.822l-.426 2.3c-.015.101-.027.176-.027.228 0 .283.168.41.549.41.148.004.294-.012.434-.051l-.215 1.214zM13.348 3.15c0 .695.373 1.176 1.22 1.536.65.275.752.358.752.607 0 .343-.286.502-.922.502-.491-.002-.979-.077-1.44-.221l-.223 1.27.072.014.296.053c.095.018.235.033.42.05.382.032.679.046.888.046 1.69 0 2.473-.585 2.473-1.84 0-.755-.327-1.2-1.133-1.534-.67-.274-.748-.339-.748-.595 0-.3.266-.453.783-.453.387.006.772.034 1.154.083l.23-1.272c-.468-.066-.941-.102-1.415-.11-1.791.001-2.414.846-2.407 1.864zM45.166 5.62c.753 0 1.28-.766 1.28-1.856 0-.7-.3-1.082-.86-1.082-.732 0-1.251.769-1.251 1.853.004.722.284 1.085.831 1.085zm2.38 1.297H46.02l.08-.54c-.444.427-.9.614-1.49.614-1.178 0-1.95-.91-1.95-2.288 0-1.833 1.2-3.381 2.626-3.381.626 0 1.1.233 1.547.754l.35-1.936h1.59l-1.227 6.777zM23.905 3.52c.008-.115.011-.209.011-.278 0-.45-.287-.714-.765-.714-.51 0-.878.351-1.028.989l1.782.004zm.904 3.282c-.534.148-1.093.222-1.656.22-1.798 0-2.737-.846-2.737-2.465 0-1.893 1.194-3.288 2.819-3.288 1.324 0 2.175.781 2.175 2.006-.007.457-.074.914-.201 1.359h-3.204c-.011.056-.016.113-.016.171 0 .644.478.968 1.418.968.582 0 1.155-.12 1.671-.35l-.269 1.38zM6.875 6.918h-1.61l.922-5.207-2.06 5.207H3.02L2.89 1.74l-.972 5.177H.409L1.667.14H3.99l.062 4.193L5.62.141h2.504l-1.25 6.777zM12.198 6.919H10.86l.03-.573c-.408.456-.952.668-1.69.668-.876 0-1.474-.614-1.474-1.502 0-1.345 1.044-2.129 2.832-2.129.22.001.439.015.656.042.04-.117.06-.237.065-.359 0-.364-.282-.502-1.036-.502-.453-.001-.904.052-1.34.157l-.224.056-.14.036.22-1.236c.805-.213 1.34-.296 1.933-.296 1.385 0 2.119.56 2.119 1.616 0 .274-.024.478-.132 1.093l-.338 1.952-.055.352-.04.281-.029.192-.018.152zm-1.172-2.456c-.12-.016-.24-.023-.361-.024-.913 0-1.376.285-1.376.841 0 .343.228.561.58.561.655.001 1.13-.56 1.157-1.378zM38.653 6.919h-1.339l.032-.573c-.406.456-.952.668-1.69.668-.875 0-1.477-.614-1.477-1.502 0-1.345 1.044-2.129 2.836-2.129.22.001.439.015.657.042.038-.117.059-.237.063-.359 0-.364-.28-.502-1.036-.502-.453-.002-.904.051-1.339.157l-.23.056-.138.036.224-1.236c.806-.213 1.338-.296 1.928-.296 1.388 0 2.12.56 2.12 1.616 0 .274-.027.478-.13 1.093l-.34 1.952-.05.352-.045.281-.03.192-.016.152zM37.48 4.463c-.119-.016-.24-.023-.36-.024-.917 0-1.38.285-1.38.841 0 .343.23.561.581.561.662.001 1.132-.56 1.159-1.378zM43.159 1.361c-.054-.009-.108-.014-.163-.014-.529 0-.832.241-1.326.901l.143-.837h-1.458l-.986 5.51h1.615c.58-3.368.732-3.95 1.503-3.95.037 0 .076 0 .113.007.109-.559.318-1.099.618-1.602l-.059-.015zM37.98 12.285c0-1.392-.801-2.47-2.308-2.47-1.734 0-2.856 1.31-2.856 3.25 0 1.384.663 2.518 2.305 2.518 1.657 0 2.859-1.004 2.859-3.298zm-1.586-.023c0 1.25-.451 1.985-1.163 1.985-.52.013-.835-.482-.835-1.228 0-.877.462-1.871 1.2-1.871.592.004.798.543.798 1.114zM33.333 8.84l-.247 1.469c-.535-.26-.926-.367-1.348-.367-1.127 0-1.912 1.05-1.912 2.538 0 1.03.527 1.653 1.404 1.653.374 0 .783-.11 1.28-.35l-.26 1.546c-.432.127-.884.194-1.34.197-1.625 0-2.634-1.123-2.634-2.926 0-2.425 1.395-4.118 3.393-4.118.229-.002.457.024.678.073l.617.15c.196.067.235.08.369.136zM23.364 9.85c-.05-.011-.102-.016-.155-.016-.488 0-.776.246-1.233.897l.132-.837h-1.366l-.915 5.51h1.505c.541-3.37.684-3.95 1.407-3.95.036-.002.073.001.11.005.1-.554.293-1.093.574-1.6l-.059-.01zM40.801 14.05c.71 0 1.199-.764 1.199-1.857 0-.702-.28-1.08-.797-1.08-.685 0-1.172.767-1.172 1.855.002.717.263 1.083.771 1.083zm2.226 1.297h-1.421l.072-.538c-.413.424-.843.612-1.394.612-1.097 0-1.818-.91-1.818-2.293 0-1.829 1.125-3.381 2.454-3.381.587 0 1.031.237 1.442.759l.333-1.938h1.48l-1.148 6.779zM8.405 12.047c.006-.116.011-.208.011-.28 0-.449-.265-.712-.71-.712-.48 0-.824.354-.958.983l1.657.01zm.844 3.276c-.495.15-1.017.225-1.542.224-1.681 0-2.559-.849-2.559-2.468 0-1.89 1.117-3.286 2.632-3.286 1.244 0 2.033.78 2.033 2.005-.007.457-.068.913-.183 1.36H6.628c-.008.082-.012.123-.012.171 0 .643.45.966 1.323.966.547-.001 1.085-.121 1.563-.35l-.253 1.378zM26.304 12.047c.01-.116.016-.208.016-.28 0-.449-.268-.712-.713-.712-.479 0-.823.354-.961.983l1.658.01zm.847 3.276c-.496.15-1.017.225-1.543.224-1.684 0-2.561-.849-2.561-2.468 0-1.89 1.117-3.286 2.632-3.286 1.243 0 2.034.78 2.034 2.005-.008.458-.071.914-.19 1.36h-2.995c-.008.082-.015.123-.015.171 0 .643.45.966 1.322.966.548-.001 1.087-.121 1.565-.35l-.25 1.378zM47.319 12.047c.006-.116.01-.208.01-.28 0-.449-.262-.712-.71-.712-.48 0-.822.354-.957.983l1.657.01zm.846 3.276c-.497.15-1.02.224-1.547.224-1.68 0-2.56-.849-2.56-2.468 0-1.89 1.119-3.286 2.633-3.286 1.243 0 2.03.78 2.03 2.005-.005.457-.067.913-.184 1.36H45.54c-.009.057-.013.114-.013.171 0 .643.45.966 1.323.966.547-.001 1.086-.121 1.565-.35l-.25 1.378zM4.792 10.1c-.371-.215-.81-.325-1.258-.318-.608 0-1.097.108-1.097.663 0 .983 2.218.613 2.218 2.71 0 1.91-1.465 2.405-2.79 2.405-.589 0-1.267-.164-1.767-.357l.36-1.404c.3.235.91.396 1.407.396.478 0 1.217-.11 1.217-.82 0-1.11-2.217-.696-2.217-2.644 0-1.78 1.296-2.314 2.545-2.314.704 0 1.365.088 1.753.308L4.792 10.1zM13.657 15.323c-.311.128-.726.212-1.34.212-1.316 0-2.131-1.125-2.131-2.496 0-1.794 1.18-3.226 2.917-3.226.382 0 .957.14 1.413.367l-.333 1.316c-.293-.182-.643-.284-1.005-.297-.804 0-1.38.631-1.38 1.763 0 .655.417 1.186 1.076 1.186.355.006.705-.078 1.005-.24l-.222 1.415zM19.287 13.942c-.078.475-.15.935-.192 1.43h-1.45l.123-.89h-.014c-.454.604-.924 1.016-1.744 1.016-.91 0-1.403-.818-1.403-1.89 0-.37.027-.577.124-1.154l.41-2.55h1.613l-.432 2.558c-.058.275-.093.553-.106.832 0 .323.171.648.606.63.661 0 1.052-.693 1.162-1.502l.445-2.518h1.561l-.703 4.038zM49.667 15.304h-.244v-.912h-.352v-.197h.948v.197h-.353v.913h.001zM51.283 15.304h-.222v-.927l-.218.928h-.24l-.212-.928v.928h-.227v-1.11h.356l.21.875.208-.875h.352v1.11h-.007z" clip-rule="evenodd"/>
</svg>
