<svg xmlns="http://www.w3.org/2000/svg" width="33" height="16" fill="none" viewBox="0 0 33 16">
    <path fill="#8E8E8E" fill-rule="evenodd" d="M5.65 2.393C2.779 2.393.444 4.46.444 7s2.335 4.608 5.206 4.608h21.7c2.871 0 5.206-2.067 5.206-4.608 0-2.54-2.335-4.607-5.206-4.607H5.65zM27.35 12H5.65C2.534 12 0 9.757 0 7s2.534-5 5.65-5h21.7C30.466 2 33 4.243 33 7s-2.534 5-5.65 5z" clip-rule="evenodd"/>
    <path fill="#8E8E8E" fill-rule="evenodd" d="M25.5 6.27c-.425 0-.77-.345-.77-.77 0-.425.345-.769.77-.769.425 0 .77.344.77.769 0 .425-.345.77-.77.77zm0-2.27c-.828 0-1.5.672-1.5 1.5S24.672 7 25.5 7 27 6.328 27 5.5 26.328 4 25.5 4zM18.5 6.27c-.424 0-.77-.345-.77-.77 0-.425.346-.769.77-.769.425 0 .77.344.77.769 0 .425-.345.77-.77.77zm0-2.27c-.828 0-1.5.672-1.5 1.5S17.672 7 18.5 7 20 6.328 20 5.5 19.328 4 18.5 4zM23.891 5.448c-.103.022-.26.044-.32.044-.28 0-.34-.07-.34-.267V4.117h.667v-.462h-.668V3h-.75l-.158.655H21.757c-.428.001-.75.193-.958.493l-.26-.493H20v2.3h.92v-1c0-.505.406-.828.887-.838h.503V5.26c0 .54.376.739.988.739.315 0 .557-.049.702-.084l-.109-.468zM28 4.949V7h-1V4h.607l.203.457M28 4.52c.255-.295.605-.52 1.013-.52.7 0 .987.557.987 1.073V7h-.864V5.097c0-.251-.21-.388-.437-.388-.242 0-.398.139-.535.286M13 3h.937l1.287 1.886V3H16v3h-.849l-1.375-2.074V6H13V3zM32.715 2v.169h-.259V3h-.201v-.831H32V2h.715z" clip-rule="evenodd"/>
    <path fill="#8E8E8E" fill-rule="evenodd" d="M32 3V2h.273l.182.655L32.64 2h.276v1h-.166v-.782h-.005L32.533 3h-.148l-.214-.782h-.004V3H32zM13 9.78l.224-.236c.18.091.454.176.785.176.323 0 .522-.1.522-.273 0-.2-.251-.252-.665-.35-.371-.09-.736-.218-.736-.577 0-.337.388-.52.91-.52.349 0 .604.046.81.13l-.178.252c-.173-.06-.38-.103-.623-.103-.29 0-.466.075-.466.233 0 .186.203.232.584.318.396.087.833.214.833.611 0 .337-.352.559-.984.559-.469 0-.813-.11-1.016-.22zM16 8h1.917v.276h-1.371v.546h1.082v.271h-1.082v.63H18V10h-2V8zM18 9.004C18 8.437 18.382 8 19.147 8c.343 0 .613.077.803.234l-.27.222c-.164-.113-.302-.169-.526-.169-.448 0-.655.26-.655.742 0 .452.218.681.66.681.244 0 .417-.092.568-.205l.273.216c-.199.166-.448.279-.846.279C18.366 10 18 9.574 18 9.004zM20 9.219V8h.487v1.273c0 .272.097.449.51.449.41 0 .512-.177.512-.449V8H22v1.219c0 .489-.272.781-1.007.781-.722 0-.993-.292-.993-.781zM23.909 8.89c.36 0 .545-.082.545-.313 0-.222-.19-.301-.517-.301h-.457v.614h.429zM25 10h-.526l-.545-.848h-.449V10H23V8h.926c.573 0 1.02.145 1.02.583 0 .299-.253.449-.537.52L25 10zM26 8h1.919v.276h-1.373v.546h1.082v.271h-1.082v.63H28V10h-2V8zM28.655 9.723c.638 0 .856-.215.856-.73 0-.453-.171-.717-.799-.717h-.247v1.447h.19zM28 8h.682c.89 0 1.318.353 1.318.993C30 9.644 29.565 10 28.706 10H28V8zM6 3.74c-1.095 0-2.125.39-2.9 1.101-.775.71-1.203 1.655-1.203 2.659 0 1.003.428 1.948 1.203 2.658.775.71 1.805 1.101 2.9 1.101s2.125-.391 2.901-1.102c.774-.71 1.2-1.654 1.2-2.657 0-1.004-.426-1.948-1.2-2.659C8.124 4.131 7.093 3.74 6 3.74zM6 13c-3.309 0-6-2.469-6-5.5C0 4.467 2.691 2 6 2s6 2.467 6 5.5C12 10.53 9.309 13 6 13zM13 1.59h.589V1H13v.59zM13 .591h.589V0H13v.591zM11 1.575h.55V1H11v.575zM11 2.55h.555V2H11v.55zM12 2.555h.617V2H12v.555zM10 2.527h.552V2H10v.527z" clip-rule="evenodd"/>
    <path fill="#8E8E8E" fill-rule="evenodd" d="M11 2.55h.55V2H11v.55zM12 .583h.583V0H12v.583zM11 1.585h1V1h-1v.585z" clip-rule="evenodd"/>
    <path fill="#8E8E8E" fill-rule="evenodd" d="M11 2h.536V1H11v1zM10.566 2v.404h-.45V2H9.37v.29h-.4v.36h.447v.399H8.97v-.4h-.475v.627h-.448v.4h-.299v.4h-.327c-.368.492-1.29 2.024-1.568 2.647-1.006-1.255-1.786-1.753-2.4-1.933-.332-.09-.73.234-.18.744C4.535 6.782 4.934 7.816 5.318 8.64c.204.434 1.115.501 1.297.059.39-.935.954-1.986 1.622-2.85v-.446h.357v-.404h.375v-.467h.447v-.45h-.453v-.41h.453v.41h.444v-.406h.354v-.49h.4V2.85H11V2h-.434zM3.55 14.79v-.006c0-.292-.253-.484-.553-.484-.3 0-.564.195-.564.484v.005c0 .293.264.484.564.484.304 0 .553-.186.553-.483zM2 14.032h.444v.252c.142-.158.344-.284.656-.284.457 0 .9.284.9.784v.005c0 .502-.44.785-.9.785-.32 0-.521-.127-.656-.266V16H2v-1.968zM5.57 14.504v-.003c0-.169-.237-.309-.575-.309-.345 0-.566.138-.566.305v.004c0 .167.238.308.573.308.348 0 .569-.14.569-.305zm-1.57 0v-.003c0-.274.426-.501 1.002-.501.575 0 .998.223.998.497v.004c0 .272-.426.499-1.005.499-.572 0-.995-.223-.995-.496zM6 14.004h.311l.266.678L6.87 14h.259l.295.682.271-.678H8L7.566 15h-.271l-.296-.676L6.7 15h-.27L6 14.004zM8.765 14.432c-.015-.142-.106-.252-.262-.252-.145 0-.247.104-.268.252h.53zm-.765.07V14.5c0-.274.21-.499.505-.499.329 0 .495.24.495.516 0 .02-.002.039-.004.061h-.759c.025.156.145.243.297.243.116 0 .198-.04.28-.114l.14.114c-.099.11-.234.18-.423.18-.3 0-.531-.202-.531-.497zM10 14.019h.393v.22c.106-.146.305-.246.607-.239v.238h-.023c-.344 0-.584.128-.584.389V15H10v-.981zM11.765 14.432c-.015-.142-.106-.252-.262-.252-.145 0-.247.104-.268.252h.53zm-.765.07V14.5c0-.274.21-.499.505-.499.329 0 .495.24.495.516 0 .02-.002.039-.004.061h-.759c.026.156.145.243.297.243.116 0 .198-.04.28-.114l.14.114c-.099.11-.234.18-.423.18-.3 0-.531-.202-.531-.497zM14.564 14.26v-.005c0-.275-.264-.456-.56-.456-.304 0-.556.173-.556.456v.005c0 .276.256.457.556.457.296 0 .56-.184.56-.457zm-1.564 0v-.005c0-.472.436-.74.897-.74.319 0 .52.119.66.252V13H15v1.97h-.444v-.237c-.142.148-.343.267-.66.267-.453 0-.896-.267-.896-.74zM17.55 14.26v-.005c0-.275-.253-.456-.553-.456-.301 0-.565.183-.565.456v.005c0 .276.264.457.565.457.304 0 .553-.177.553-.457zm-1.107.489v.221H16V13h.443v.783c.143-.149.345-.267.657-.267.457 0 .9.267.9.739v.005c0 .473-.44.74-.9.74-.32 0-.521-.12-.657-.251z" clip-rule="evenodd"/>
    <path fill="#8E8E8E" fill-rule="evenodd" d="M17.122 15.908l.151-.261c.081.035.17.058.262.058.126 0 .203-.044.277-.177L17 14h.476l.554 1.135.505-1.135H19l-.775 1.572c-.155.313-.328.428-.642.428-.188 0-.325-.035-.461-.092zM20 14h.394l.612 1.526.609-1.526H22l-.843 2h-.313L20 14zM22.765 14.432c-.015-.142-.106-.252-.262-.252-.145 0-.247.104-.268.252h.53zm-.765.07V14.5c0-.274.209-.499.505-.499.329 0 .495.24.495.516l-.003.061h-.76c.025.156.145.243.297.243.116 0 .198-.04.28-.114l.14.114c-.099.11-.233.18-.424.18-.3 0-.53-.202-.53-.497zM23 14.019h.393v.22c.107-.146.305-.246.607-.239v.238h-.023c-.344 0-.584.128-.584.389V15H23v-.981zM25.017 15h.414v-1.459h-.414V15zM25 13.318h.444V13H25v.318z" clip-rule="evenodd"/>
    <path fill="#8E8E8E" fill-rule="evenodd" d="M25 15.689l.273-.245c.247.161.494.253.815.253.282 0 .459-.097.459-.245v-.005c0-.14-.105-.214-.584-.297-.55-.1-.86-.223-.86-.581v-.006c0-.333.369-.563.882-.563.376 0 .675.085.937.245l-.243.257c-.233-.13-.465-.2-.701-.2-.266 0-.421.104-.421.231v.006c0 .15.118.217.613.305.546.1.83.247.83.57v.005c0 .364-.381.581-.923.581-.395 0-.767-.103-1.077-.311zM27.017 15h.414v-1.459h-.414V15zM27 13.318h.444V13H27v.318zM29.564 14.713v-.006c0-.248-.26-.417-.568-.417-.308 0-.55.166-.55.415v.005c0 .248.246.417.55.417.307 0 .568-.171.568-.414zm-1.47 1.107l.165-.26c.206.101.426.16.69.16.395 0 .612-.16.612-.462v-.116c-.162.162-.364.276-.682.276-.455 0-.879-.263-.879-.705v-.006c0-.445.428-.707.879-.707.326 0 .527.117.677.256v-.224H30v1.197c0 .254-.084.442-.245.568-.176.138-.447.203-.796.203-.318 0-.615-.063-.865-.18zM30 14.02h.256v.152c.071-.092.174-.172.348-.172.25 0 .396.148.396.377V15h-.255v-.557c0-.152-.087-.239-.239-.239-.147 0-.25.091-.25.243V15H30v-.98z" clip-rule="evenodd"/>
</svg>
