<svg xmlns="http://www.w3.org/2000/svg" width="48" height="16" fill="none" viewBox="0 0 48 16">
    <path fill="#8E8E8E" fill-rule="evenodd" d="M26.917 8.399c-.292.569-1.357 1.7-1.15 1.945l1.903-.51-.755-1.435h.002zM7.087 6.14v1.67c1.016.242 2.433-.661 1.391-1.466-.414-.227-.921-.202-1.392-.204zM4.331 4.795c1.688.043 3.4-.119 5.066.168 1.102.172 2.184.928 2.1 1.964.066 1.255-1.405 2.046-2.714 2.155-.481.275-1.819-.295-1.68.419v1.53H4.332V4.794zm17.48-3.31c1.104-.08 2.01.897 1.626 1.796-.459 1.34-3.229 1.161-3.313-.283-.165-.848.72-1.563 1.688-1.512zM22.496 0L.041 1.08l6.242 14.503 12.889-3.463c-.285-.475-1.041-1.012-1.041-1.012s-.615-.104-1.028.014c-1.833.055-4.061-.426-4.813-2.024-.715-1.442.089-3.252 1.776-3.888 1.55-.619 3.418-.687 5.035-.214l-.006 1.674c-1.177-.582-3.102-.781-3.912.366-.705 1.057.168 2.514 1.62 2.557.843.217 2.374-.304 2.374-.304s.729.05 1.087.355c.313.116.075-.661.15-.932V4.795h2.791v4.58c.8-1.102 1.628-2.189 2.52-3.238L22.496 0zM47.486 10.156h-.377V8.908h-.482v-.266h1.34v.266h-.48v1.248zm-1.132 0h-.475l-.77-1.145h-.012c.017.202.022.347.022.435v.715h-.333V8.647h.475l.77 1.136h.012c-.011-.197-.016-.337-.016-.416v-.72h.338v1.51h-.011zm-2.197 0l-.13-.36h-.646l-.13.36h-.405l.623-1.523h.459l.628 1.523h-.399zm-.219-.63c-.12-.328-.185-.515-.201-.557-.017-.042-.029-.074-.033-.103-.028.089-.104.309-.23.655h.464v.004zm-1.689.63h.377V8.642h-.377v1.514zm-1.405 0V8.642h.378v1.253h.722v.266h-1.1v-.005zm-.332-1.042c0 .163-.06.29-.18.374-.121.084-.29.131-.51.131h-.163v.537h-.372V8.642h.568c.214 0 .378.037.492.117.105.079.165.2.165.355zm-.854.243h.126c.115 0 .202-.019.257-.06.055-.038.088-.099.088-.17 0-.074-.022-.13-.071-.167-.05-.037-.126-.057-.224-.057h-.17v.454h-.006zm-1.961.8l-.427-1.188h-.01c.015.244.021.402.021.486v.706h-.334V8.647h.515l.42 1.159h.005l.444-1.16h.513v1.515h-.35v-.836c0-.043.006-.164.017-.35H38.5l-.46 1.186h-.343v-.005zm-1.121-.758c0 .252-.071.444-.22.58-.146.135-.354.2-.622.2-.273 0-.481-.065-.623-.2-.148-.136-.219-.328-.219-.58 0-.252.071-.444.218-.58.148-.13.357-.2.63-.2s.48.065.622.2c.143.136.214.328.214.58zm-1.295 0c0 .168.038.3.114.384.076.084.186.13.34.13.3 0 .447-.168.447-.509 0-.341-.147-.514-.448-.514-.148 0-.262.042-.339.13-.076.08-.114.21-.114.38zm-1.143-.509c-.142 0-.252.047-.328.135-.076.089-.114.22-.114.38 0 .335.146.504.442.504.126 0 .274-.028.453-.08v.271c-.147.051-.306.08-.485.08-.258 0-.455-.066-.59-.201-.138-.136-.203-.328-.203-.575 0-.16.032-.295.098-.417.065-.116.163-.209.29-.27.126-.066.273-.093.443-.093.174 0 .343.037.518.107l-.12.261c-.065-.028-.13-.051-.202-.07-.07-.023-.137-.032-.202-.032zM47.88 6.268c.034.717-.624 1.339-1.42 1.494-.884.176-1.855.12-2.68-.219V6.338c.66.272 1.402.485 2.14.396.778-.194.11-.829-.395-.887-.7-.26-1.548-.595-1.673-1.32-.165-.623.162-1.338.878-1.592 1.002-.38 2.175-.23 3.15.14-.162.348-.324.695-.488 1.042-.55-.2-1.18-.422-1.783-.269-.632.392.35.749.739.883.665.238 1.444.606 1.514 1.294.012.081.018.162.018.242zm-4.729 0c.034.717-.623 1.339-1.419 1.494-.885.176-1.856.12-2.68-.219V6.338c.659.272 1.402.485 2.14.396.777-.194.11-.829-.396-.887-.699-.26-1.547-.595-1.673-1.32-.166-.623.163-1.338.879-1.592 1.002-.38 2.175-.23 3.15.14l-.487 1.042c-.552-.2-1.18-.422-1.784-.269-.633.392.349.749.738.883.667.238 1.442.606 1.514 1.294.013.081.018.162.018.242zm-4.875-1.09c.032.874-.38 1.824-1.317 2.26-.967.478-2.113.321-3.18.349-.152-.04-.513.097-.472-.109V2.786c.898.014 1.799-.035 2.693.039.954.085 1.869.63 2.13 1.442.106.295.146.604.146.912zm-1.645.047c.023-.514-.174-1.167-.845-1.303-.294-.07-.6-.041-.9-.047V6.68c.537.02 1.182-.012 1.486-.455.215-.297.255-.658.259-.999z" clip-rule="evenodd"/>
    <path fill="#8E8E8E" fill-rule="evenodd" d="M27.54 5.118c-1.838 2.062-3.785 4.2-5.316 6.437-.929-.565-1.589-1.494-2.736-1.764-.91-.096-1.15.94-.587 1.402.562.877 1.396 1.629 2.352 2.197.773.336 1.719.02 2.192-.563.907-.958 1.424-2.126 2.16-3.175 1.544-2.38 5.901-6.018 5.6-6.601-.299-.583-3.185 1.533-3.664 2.067z" clip-rule="evenodd"/>
</svg>
