<svg xmlns="http://www.w3.org/2000/svg" width="57" height="16" fill="none" viewBox="0 0 57 16">
    <path fill="#8E8E8E" fill-rule="evenodd" d="M27.545 9.433c-.094-.959-.641-1.468-1.653-1.468-.818 0-1.57.403-1.733 1.468h3.386zm-5.094.614c0-2.38 1.953-3.266 3.457-3.266 1.625 0 3.181.84 3.181 3.396v.344h-4.95c.067 1.136.874 1.634 1.938 1.634.77.025 1.514-.242 2.035-.734l.887.758c-.77.751-1.887 1.167-3.046 1.136-1.814-.002-3.493-.96-3.493-3.268h-.01zm-4.126 3.136V8.059h-1.25v-1.16h1.25V6.25c0-1.054.5-1.87 2.35-1.87.315 0 .874.048 1 .059V5.56c-.19-.031-.383-.047-.575-.048-.603 0-1.092.143-1.092.816v.557h1.584v1.16h-1.584v5.138h-1.683zm-4.41-1.75v-1.386c-1.999.236-3.073.663-3.073 1.348 0 .498.397.758.999.758.774.01 1.521-.25 2.073-.72zm-4.716.233c0-1.361 1.338-2.272 4.725-2.597v-.193c0-.627-.381-.9-1.188-.9-1 0-1.831.433-2.446.853l-.82-.912c.964-.74 2.21-1.145 3.498-1.136 1.938 0 2.607.806 2.607 2.273v2.596c0 .758.055 1.22.205 1.54H14.09c-.11-.258-.167-.53-.165-.806-.749.65-1.598.901-2.677.901-1.174-.007-2.048-.576-2.048-1.617v-.002zm-9.124-.543l1.352-.615c.6 1.03 1.528 1.526 2.785 1.526 1.255 0 2.062-.344 2.062-1.136 0-.757-.629-1.113-2.294-1.538C2.026 8.86.455 8.4.455 6.73c0-1.49 1.406-2.473 3.455-2.473 1.997 0 3.168.852 3.783 1.881l-1.249.747c-.5-.813-1.49-1.309-2.553-1.28-1.118 0-1.76.355-1.76.994 0 .816.724 1.082 2.375 1.514 1.913.486 3.442 1.03 3.442 2.676 0 1.432-1.407 2.556-3.811 2.556-1.998.004-3.42-.896-4.062-2.223zM55.123 7.795c.13 0 .2-.038.2-.133-.001-.076-.074-.137-.162-.136-.014 0-.026.002-.038.004h-.157v.265h.157zm-.437-.485h.47c.292 0 .464.112.464.344.013.13-.074.253-.214.303l.249.398h-.304l-.215-.368h-.143v.368h-.292V7.312l-.015-.002zM56 7.857c.012-.419-.368-.766-.852-.776h-.025c-.495-.01-.905.33-.916.758-.01.43.38.785.876.795.495.01.906-.33.917-.76v-.017zm-1.978 0c-.01-.522.471-.952 1.073-.96h.036c.597-.007 1.087.408 1.094.925v.026c.01.523-.471.953-1.074.962h-.036c-.594.008-1.083-.403-1.093-.918v-.035zm-7.333 7.575l.272-.816c.349.075.706.11 1.064.106.75 0 1.094-.273 1.382-.887l.272-.615-2.785-6.276h1.249l2.117 5.053h.028l2.11-5.068h1.19l-3.088 6.96c-.5 1.1-1.05 1.691-2.457 1.691-.458.012-.914-.038-1.354-.148zm-1.98-5.907c-.095-1.111-.71-1.869-1.898-1.869-.97 0-1.886.58-2.05 1.87h3.947zm-5.148.533c0-2.272 1.748-3.246 3.265-3.246 1.708 0 2.997 1.041 2.997 3.303v.216h-5.096c.04 1.409.985 2.164 2.173 2.164 1.04 0 1.626-.368 2.171-1.017l.681.521c-.641.86-1.756 1.364-2.937 1.327-1.697-.013-3.257-1.091-3.257-3.268h.003zm-8.36 3.125V4.425h1.195v4.52l4.576-4.52h1.447l-3.468 3.337 3.946 5.41h-1.38L34.16 8.545l-1.763 1.68v2.958h-1.202.008z" clip-rule="evenodd"/>
    <mask id="prefix__a" width="54" height="3" x="0" y="0" maskUnits="userSpaceOnUse">
        <path fill="#fff" fill-rule="evenodd" d="M.428 0h52.999v2.159h-53V0z" clip-rule="evenodd"/>
    </mask>
    <g mask="url(#prefix__a)">
        <path fill="#8E8E8E" fill-rule="evenodd" d="M38.927.934h-.5V.47h.513c.204 0 .349.065.349.217-.005.143-.143.256-.308.251-.017 0-.035-.002-.052-.005h-.002zM39.14.05h-1.697v2.043h.974V1.37h.637c.263.012.526-.023.774-.102.281-.08.468-.309.46-.565 0-.558-.567-.65-1.148-.65zm-8.742 0h2.427V.47h-1.353v.383h1.353v.396h-1.353v.398h1.353v.448h-2.427V.051zm-8.414 1.177L22.35.58l.364.65h-.729zm-.25-1.177l-1.206 2.043h.999l.222-.402h1.248l.224.402h1.048L23.062.051h-1.328zm5.476 0h.973v2.043h-1.12L25.632.941v1.153h-.977V.051h1.107l1.445 1.158V.051h.005zm15.096.92h-.577V.486h.58c.153-.032.31.05.347.184.036.133-.058.267-.212.3-.043.008-.088.01-.13 0h-.008zM43.664.7c0-.557-.567-.65-1.145-.65h-1.756v2.043h.971v-.76h.077l.75.76h1.367l-1-.805c.472-.07.742-.285.742-.589h-.006zm9.754.785c0 .216-.195.673-1.396.673-1 0-1.347-.173-1.56-.275l.316-.366c.308.105.638.154.969.144.249 0 .482-.044.484-.178.002-.134-.155-.173-.532-.197-.377-.024-1.114-.108-1.118-.589-.005-.48.566-.697 1.393-.697.478-.012.952.07 1.388.24l-.334.36c-.247-.078-.509-.116-.771-.113-.25 0-.516.039-.516.19 0 .152.27.159.463.179.278.007.554.05.82.127.252.065.419.274.402.502h-.008zm-3.27 0c0 .216-.198.673-1.396.673-.999 0-1.299-.173-1.498-.275l.267-.366c.308.105.638.154.969.144.25 0 .485-.044.485-.178s-.156-.173-.532-.197c-.378-.024-1.067-.108-1.071-.589-.006-.48.508-.695 1.342-.695.478-.012.952.07 1.386.24l-.334.36c-.248-.078-.51-.116-.774-.113-.25 0-.515.04-.515.191s.27.158.463.178c.278.007.554.05.818.127.25.068.415.274.398.5h-.007zM44.36.051h2.427V.47h-1.353v.383h1.353v.396h-1.353v.398h1.353v.448H44.36V.051zm-8.517.989l1.092 1.054h-1.159l-.637-.65-.635.65h-1.158l1.094-1.054-.984-.989h1.189l.5.546.498-.546h1.177l-.977.989zM8.072.05l.57 2.043H7.67L7.348.936l-.624 1.158H6.11L5.485.936l-.312 1.158H4.26L4.828.051h1.044l.555 1.01.552-1.01h1.104-.01zM1.894 1.228L2.258.58l.365.65h-.729zM1.644.051L.428 2.094h.998l.223-.402h1.249l.222.402h1.049L2.962.051H1.644zm7.526 0h2.427V.47h-1.354v.383h1.354v.396h-1.354v.398h1.354v.448H9.17V.051zm6.707 0h1.034v2.043h-1.029V.051h-.005zm3.444-.048c.316-.008.63.03.931.113v.5c-.244-.056-.496-.085-.748-.086-.163 0-.925.02-.925.56 0 .539.762.543.925.543.252-.003.504-.033.748-.088v.502c-.3.08-.615.118-.93.11-.5 0-1.831-.12-1.831-1.07 0-.95 1.32-1.084 1.83-1.084zm-5.465.968h-.576V.486h.579c.155-.03.309.053.344.187.036.134-.061.268-.216.298-.043.009-.087.008-.13 0zm1.36-.27c0-.557-.567-.65-1.147-.65h-1.763v2.043h.974v-.76h.077l.75.76h1.366l-1-.805c.47-.07.743-.285.743-.589z" clip-rule="evenodd"/>
    </g>
</svg>
