<svg xmlns="http://www.w3.org/2000/svg" width="36" height="16" fill="none" viewBox="0 0 36 16">
    <path fill="#8E8E8E" fill-rule="evenodd" d="M16.978 8.321l-2.085 4.887-.22-.993c-.518-1.217-1.643-2.493-2.95-3.011l1.905 6.277h2.254l3.35-7.154H16.98l-.002-.006zM18.763 15.484l1.333-7.17h2.128l-1.332 7.17h-2.13zM28.616 8.49c-.608-.203-1.255-.305-1.907-.302-2.107 0-3.586.974-3.599 2.366-.013 1.031 1.058 1.608 1.864 1.95.805.343 1.109.571 1.107.889 0 .48-.657.7-1.276.7-.693.016-1.38-.114-2.001-.38l-.276-.114-.297 1.603c.756.256 1.561.385 2.373.38 2.236 0 3.688-.962 3.706-2.448 0-.818-.56-1.437-1.79-1.948-.741-.333-1.2-.552-1.194-.89 0-.297.386-.617 1.22-.617.549-.011 1.093.083 1.594.276l.19.082.289-1.554-.003.007zM31.448 12.936c.177-.41.849-2.005.849-2.005s.175-.415.282-.682l.142.617.496 2.07h-1.77zm2.624-4.615h-1.64c-.51 0-.892.126-1.118.596l-3.162 6.569h2.236s.366-.885.438-1.08h2.726c.065.25.258 1.073.258 1.073h1.97l-1.708-7.158z" clip-rule="evenodd"/>
    <path fill="#8E8E8E" fill-rule="evenodd" d="M12.961 8.317H9.527l-.02.124c2.67.593 4.43 2.053 5.165 3.776l-.746-3.295c-.129-.453-.501-.588-.965-.603v-.002zM3.086 6.584H1.73L.162.446l1.502-.22 1.072 4.806L5.464.292h1.442l-3.82 6.292zM8.242 2.833c-.5 0-.969.344-1.19 1.063h2.006c.037-.68-.218-1.063-.814-1.063h-.002zm1.906 1.744H6.909c-.087.854.368 1.225 1.14 1.225.657 0 1.217-.209 1.832-.544v.855c-.63.351-1.363.537-2.112.535-1.408 0-2.34-.7-2.06-2.282.25-1.425 1.387-2.282 2.701-2.282 1.515 0 2.018.989 1.799 2.233-.016.091-.046.2-.057.263l-.004-.003zM12.257 4.04l-.438 2.515h-1.254l.777-4.386h1.065v.875c.425-.508 1.002-.936 1.792-.972v1.08c-.758.05-1.46.369-1.942.881v.008zM15.726 1.436c-.33.026-.62-.185-.651-.472-.006-.048-.002-.097.008-.146.071-.37.443-.64.875-.636.335-.009.615.22.626.51.001.042-.003.085-.013.126-.073.36-.432.62-.851.618h.006zm-1.545 5.121l.778-4.386h1.253l-.776 4.386H14.18zM19.684.972c-.369-.04-.706.188-.752.508l-.005.046-.113.645h.96v.89h-1.118l-.62 3.496H16.79l.619-3.496h-.73l.156-.89h.732l.133-.761c.173-.973.947-1.332 1.98-1.332.169 0 .338.011.505.036v.89c-.17-.024-.343-.036-.516-.036l.015.004zM21.242 1.436c-.33.026-.622-.185-.652-.472-.005-.048-.003-.097.009-.146.07-.37.443-.64.875-.636.333-.017.62.204.641.494.004.048 0 .096-.012.142-.072.36-.432.62-.85.618h-.011zm-1.545 5.121l.777-4.386h1.253l-.78 4.386h-1.255.005zM24.678 2.833c-.5 0-.968.344-1.19 1.063h2.005c.037-.68-.22-1.063-.814-1.063zm1.906 1.744h-3.231c-.088.854.367 1.225 1.14 1.225.656 0 1.216-.209 1.831-.544v.855c-.63.351-1.363.537-2.112.535-1.409 0-2.34-.7-2.06-2.282.251-1.425 1.386-2.282 2.702-2.282 1.513 0 2.017.989 1.798 2.233-.015.091-.046.2-.057.263l-.01-.003z" clip-rule="evenodd"/>
    <mask id="prefix__a" width="6" height="7" x="27" y="0" maskUnits="userSpaceOnUse">
        <path fill="#fff" fill-rule="evenodd" d="M27.055 0h5.487v6.649h-5.487V0z" clip-rule="evenodd"/>
    </mask>
    <g mask="url(#prefix__a)">
        <path fill="#8E8E8E" fill-rule="evenodd" d="M30.715 3.189c-.29-.137-.618-.203-.948-.19-.656 0-1.22.462-1.39 1.426-.152.854.196 1.253.75 1.253.459 0 .855-.235 1.255-.599l.335-1.889-.002-.001zm-.418 3.369v-.609c-.423.422-1.027.675-1.67.7-1.054 0-1.78-.681-1.518-2.162.289-1.633 1.453-2.36 2.625-2.36.388-.004.774.05 1.14.164l.374-2.116L32.542 0l-1.16 6.558h-1.086z" clip-rule="evenodd"/>
    </g>
</svg>
